<?xml version="1.0" encoding="iso-8859-1"?>
<!-- Uploaded to: SVG Repo, www.svgrepo.com, Generator: SVG Repo Mixer Tools -->
<!DOCTYPE svg PUBLIC "-//W3C//DTD SVG 1.1//EN" "http://www.w3.org/Graphics/SVG/1.1/DTD/svg11.dtd">
<svg fill="#24489f" version="1.1" id="Capa_1" xmlns="http://www.w3.org/2000/svg" xmlns:xlink="http://www.w3.org/1999/xlink"
	 width="800px" height="800px" viewBox="0 0 198.127 198.128"
	 xml:space="preserve">
<g>
	<path d="M197.927,123.484c0.079-0.262,0.134-0.518,0.146-0.786c0.007-0.066,0.055-0.127,0.055-0.2c0-0.098-0.055-0.171-0.066-0.269
		c-0.019-0.256-0.067-0.505-0.141-0.742c-0.048-0.171-0.121-0.335-0.183-0.487c-0.036-0.085-0.048-0.158-0.097-0.231l-38.697-63.933
		c-0.072-0.113-0.194-0.149-0.268-0.25c-0.25-0.326-0.542-0.594-0.896-0.81c-0.042-0.024-0.079-0.064-0.128-0.088
		c-0.493-0.274-1.028-0.475-1.638-0.475h-53.584v-8.802c6.966-1.546,12.196-7.751,12.196-15.177c0-8.58-6.984-15.563-15.561-15.563
		c-8.58,0-15.564,6.984-15.564,15.563c0,7.42,5.23,13.631,12.197,15.177v8.802H42.099c-0.597,0-1.132,0.201-1.625,0.475
		c-0.049,0.024-0.094,0.07-0.143,0.101c-0.338,0.216-0.624,0.472-0.868,0.792c-0.079,0.101-0.21,0.137-0.28,0.256L0.486,120.757
		c-0.828,1.369-0.578,3.129,0.6,4.219c0.746,0.676,18.542,16.873,40.971,16.873c19.936,0,36.185-12.774,40.082-16.087
		c1.602-0.262,2.844-1.583,2.844-3.258c0-1.431-0.911-2.649-2.183-3.13L48.03,61.941H95.7v86.861H84.34
		c-1.86,0-3.367,1.498-3.367,3.361s1.501,3.374,3.367,3.374H95.7v6.716H73.407c-1.857,0-3.364,1.504-3.364,3.367
		c0,1.876,1.501,3.367,3.364,3.367H95.7v6.735H61.63c-1.857,0-3.367,1.504-3.367,3.367s1.501,3.367,3.367,3.367h74.863
		c1.857,0,3.367-1.504,3.367-3.367s-1.504-3.367-3.367-3.367h-34.062v-6.735h22.292c1.857,0,3.367-1.491,3.367-3.367
		c0-1.863-1.504-3.367-3.367-3.367h-22.292v-6.716h9.675c1.87,0,3.368-1.511,3.368-3.374s-1.498-3.361-3.368-3.361h-9.675V61.941
		h47.678l-35.604,58.827c-0.055,0.079-0.066,0.152-0.104,0.243c-0.073,0.146-0.128,0.305-0.183,0.476
		c-0.085,0.256-0.134,0.493-0.146,0.748c-0.012,0.104-0.055,0.178-0.055,0.269c0,0.079,0.037,0.134,0.043,0.201
		c0.019,0.273,0.073,0.529,0.152,0.785c0.049,0.14,0.079,0.286,0.128,0.42c0.109,0.231,0.273,0.451,0.45,0.658
		c0.086,0.109,0.146,0.237,0.262,0.341c0.019,0.012,0.024,0.036,0.043,0.066c0.743,0.676,18.541,16.873,40.974,16.873
		c22.427,0,40.219-16.197,40.962-16.873c0.013-0.018,0.024-0.042,0.049-0.066c0.109-0.104,0.164-0.231,0.262-0.341
		c0.164-0.207,0.341-0.427,0.444-0.658C197.86,123.776,197.89,123.63,197.927,123.484z M99.073,22.398
		c3.669,0,6.829,2.262,8.156,5.468H90.922C92.244,24.66,95.401,22.398,99.073,22.398z M90.916,34.595h16.307
		c-1.328,3.203-4.488,5.462-8.156,5.462C95.395,40.057,92.244,37.798,90.916,34.595z M42.069,65.065l32.729,54.065H9.346
		L42.069,65.065z M13.611,125.858H70.56c-6.704,4.251-17.004,9.256-28.491,9.256C30.633,135.114,20.333,130.109,13.611,125.858z
		 M188.805,119.13h-65.452l32.729-54.065L188.805,119.13z M127.61,125.858h56.951c-6.691,4.251-17.001,9.256-28.479,9.256
		C144.641,135.114,134.326,130.109,127.61,125.858z"/>
</g>
</svg>
